<svg xmlns="http://www.w3.org/2000/svg" xmlns:xlink="http://www.w3.org/1999/xlink" width="821.641" height="1002.794" viewBox="0 0 821.641 1002.794"><defs><linearGradient id="a" x1="0.5" x2="0.5" y2="1" gradientUnits="objectBoundingBox"><stop offset="0" stop-color="#179afb"/><stop offset="1" stop-color="#6b63ff"/></linearGradient></defs><path d="M1098.336,997.745s14.219.424,43.183-14.328,74.144-41.65,74.144-41.65l65.64-37.733,78.129-46.385,75.317-62.036L1682.665,497.02l84.9-101.756s62.514-87.222,84.263-113.463,39.979-61.541,39.979-61.541,29.2-65.727,28.141-120.836S1901.306-4.844,1901.306-4.844s-7.731-.246-19.614-.156c-9.524.072-22.534-.138-37.925,0-21.747.2-48.276-.1-76.2,0-93.908.331-203.023,0-203.023,0l-466.207.017Z" transform="translate(-1098.336 5.048)" fill="url(#a)"/></svg>