<svg xmlns="http://www.w3.org/2000/svg" xmlns:xlink="http://www.w3.org/1999/xlink" width="35" height="19" viewBox="0 0 35 19"><defs><clipPath id="a"><rect width="35" height="19" rx="5" fill="#fff" opacity="0"/></clipPath></defs><g clip-path="url(#a)"><g transform="translate(0.199 -0.868)"><path d="M477.816,36.035l-7.853,4.584L480.477,48.2V31.4A5.385,5.385,0,0,1,477.816,36.035Z" transform="translate(-445.686 -30.801)" fill="#53c07e"/><path d="M148.395,24.217l10.189,5.947a1.8,1.8,0,0,0,.905.245h.013a1.8,1.8,0,0,0,.9-.245l1.526-.891.01-.006,8.653-5.051a4.183,4.183,0,0,0,2.067-3.6v-.6H146.327v.6A4.183,4.183,0,0,0,148.395,24.217Z" transform="translate(-139.07 -20.017)" fill="#53c07e"/><path d="M52.609,40.617l-7.853-4.585A5.383,5.383,0,0,1,42.093,31.4v6.584H38.769a.6.6,0,1,0,0,1.2h7.405a1.8,1.8,0,0,1,0,3.591h-8a.6.6,0,1,0,0,1.2h3.922v4.226Z" transform="translate(-36.034 -30.801)" fill="#53c07e"/><path d="M139.443,219.982a2.993,2.993,0,0,1-1.509.408h-.008a3,3,0,0,1-1.514-.408l-1.2-.7-11.646,8.393v.881a.6.6,0,0,0,.6.6h27.533a.6.6,0,0,0,.6-.6v-.881l-11.646-8.393Z" transform="translate(-117.502 -208.801)" fill="#53c07e"/><path d="M19.052,202.734a.6.6,0,0,0-.6-.6H8.915a.6.6,0,1,0,0,1.2h9.539A.6.6,0,0,0,19.052,202.734Z" transform="translate(-8.316 -192.559)" fill="#53c07e"/></g></g></svg>