<svg xmlns="http://www.w3.org/2000/svg" width="26.49" height="47.195" viewBox="0 0 26.49 47.195"><path d="M79.461,53.824a.915.915,0,0,1-.18-.017.98.98,0,0,1-.173-.053.947.947,0,0,1-.159-.085.933.933,0,0,1-.14-.114.981.981,0,0,1-.114-.14,1,1,0,0,1-.085-.16.875.875,0,0,1-.053-.172.893.893,0,0,1,0-.36.875.875,0,0,1,.053-.172.979.979,0,0,1,.085-.159.885.885,0,0,1,.254-.255A.91.91,0,0,1,79.281,52a.93.93,0,0,1,.831.251.91.91,0,0,1,.114.14.952.952,0,0,1,.085.159.918.918,0,0,1,0,.705.97.97,0,0,1-.085.16.981.981,0,0,1-.114.14A.928.928,0,0,1,79.461,53.824Zm0,0" transform="translate(-71.3 -47.191)" fill="#8853fe"/><path d="M22.311,0H4.18A4.185,4.185,0,0,0,0,4.18V43.016A4.185,4.185,0,0,0,4.18,47.2H22.311a4.185,4.185,0,0,0,4.18-4.18V4.18A4.185,4.185,0,0,0,22.311,0ZM4.18,1.844H22.311A2.339,2.339,0,0,1,24.647,4.18v.611H12.569a.922.922,0,1,0,0,1.844H24.647v33H1.844v-33h2.43a.922.922,0,1,0,0-1.844H1.844V4.18A2.339,2.339,0,0,1,4.18,1.844ZM24.647,43.015a2.339,2.339,0,0,1-2.336,2.336H4.18a2.339,2.339,0,0,1-2.336-2.336V41.481h22.8Zm0,0" transform="translate(0)" fill="#8853fe"/><path d="M49.677,143.4H43.171a.922.922,0,0,1-.922-.922v-6.5a.922.922,0,0,1,.922-.922h6.505a.922.922,0,0,1,.922.922v6.5a.922.922,0,0,1-.922.922Zm-5.583-1.844h4.661v-4.661H44.093Zm0,0" transform="translate(-38.355 -122.602)" fill="#8853fe"/><path d="M161.986,143.4H155.48a.922.922,0,0,1-.922-.922v-6.5a.922.922,0,0,1,.922-.922h6.505a.922.922,0,0,1,.922.922v6.5A.922.922,0,0,1,161.986,143.4Zm-5.583-1.844h4.661v-4.661H156.4Zm0,0" transform="translate(-140.312 -122.602)" fill="#8853fe"/><path d="M49.677,254.7H43.171a.922.922,0,0,1-.922-.922v-6.505a.922.922,0,0,1,.922-.922h6.505a.922.922,0,0,1,.922.922v6.505a.922.922,0,0,1-.922.922Zm-5.583-1.844h4.661V248.2H44.093Zm0,0" transform="translate(-38.355 -223.647)" fill="#8853fe"/><path d="M161.986,254.7H155.48a.922.922,0,0,1-.922-.922v-6.505a.922.922,0,0,1,.922-.922h6.505a.922.922,0,0,1,.922.922v6.505A.922.922,0,0,1,161.986,254.7Zm-5.583-1.844h4.661V248.2H156.4Zm0,0" transform="translate(-140.312 -223.647)" fill="#8853fe"/><path d="M124.551,462.848h-2.274a.922.922,0,1,1,0-1.844h2.274a.922.922,0,1,1,0,1.844Zm0,0" transform="translate(-110.169 -418.509)" fill="#8853fe"/><path d="M107.7,362.844h-6.084a.922.922,0,0,1,0-1.844H107.7a.922.922,0,0,1,0,1.844Zm0,0" transform="translate(-91.41 -327.724)" fill="#8853fe"/></svg>