<svg xmlns="http://www.w3.org/2000/svg" width="658.85" height="811.857" viewBox="0 0 658.85 811.857"><path d="M258.4,395.392V722.229a43.212,43.212,0,0,0,43.252,43.252H555.663a43.212,43.212,0,0,0,43.252-43.252h0V73.752A43.212,43.212,0,0,0,555.663,30.5H301.652A43.212,43.212,0,0,0,258.4,73.752h0v321.64" transform="translate(-137.508 -7.193)" fill="#fff"/><path d="M481.276,972.467l56.167-77.793s31.637-43.711,51.505-44.475c.153,11.462-.611,93.687-4.127,122.191l-103.545.076Z" transform="translate(-297.875 -200.501)" fill="#56cad8"/><path d="M527.9,8.1H382.1a11.969,11.969,0,0,0-12,12V38.514a11.969,11.969,0,0,0,12,12H527.9a11.969,11.969,0,0,0,12-12V20.1A12.018,12.018,0,0,0,527.9,8.1Z" transform="translate(-163.85 -1.91)" fill="#dee0eb"/><path d="M491.593,950.366H481.2V823.819L568.774,809.3l82.683,31.331c-3.9,8.864-24.453,67.706-68.546,119.211H491.669l-.076-9.476Z" transform="translate(-360.308 -190.855)" fill="#74d5de"/><path d="M358.94,530.252c7.107-.153,7.107,10.775,7.107,10.775,3.439-10.24,78.48-196.927,78.48-196.927s15.513,6.572-2.369,41.877c5.808,3.439,21.932,16.353,15.283,37.139-5.044,15.589-16.048,21.091-22.925,21.091,1.146,11.692-23.842,131.132-27.128,136.863-7.642,13.526-22.39,28.274-31.1,28.656-13.908.688-48.143-17.576-56.625-27.128S345.567,530.482,358.94,530.252Z" transform="translate(-43.413 -81.148)" fill="#facfca"/><path d="M440.224,499.245c33.853-30.185,116.46,42.106,114.855,54.638S509,611.731,495.932,607.91,413.554,522.934,440.224,499.245Z" transform="translate(-228.013 -116.013)" fill="#fcc486"/><path d="M475.347,495.619C490.4,471.242,512.486,455.5,544.122,455.5c109.812,0,112.945,285.8,101.482,301.7-10.164,14.061-131.285,17.729-170.258,8.024" transform="translate(-354.455 -107.419)" fill="#fed385"/><path d="M688.9,644.5l11.539,4.738c-.993,3.668-5.426,24.224-11.539,46.92" transform="translate(-568.008 -151.991)" fill="#fcc486"/><path d="M646.456,502.763c7.642-5.655,15.436-7.947,22.62-4.967,41.418,17.27,11.921,121.121,0,124.942-3.821,1.223-12.532,0-22.62-2.675" transform="translate(-525.564 -117.085)" fill="#fed385"/><path d="M575.7,469.2c0,9.094,50.359,11.08,50.359,0V407.3H575.7Z" transform="translate(-407.124 -96.052)" fill="#facfca"/><ellipse cx="61.366" cy="45.623" rx="61.366" ry="45.623" transform="translate(180.742 358.705) rotate(-111.696)" fill="#facfca"/><ellipse cx="14.443" cy="10.087" rx="14.443" ry="10.087" transform="matrix(-0.582, -0.813, 0.813, -0.582, 161.286, 323.945)" fill="#facfca"/><path d="M466.6,333.209c0-8.406,7.871-17.652,9.323-28.2.764-5.349-.917-27.587,5.349-35.152,12.991-15.589,20.633-12.38,30.567-16.048C529.109,247.469,535.758,237,550.048,237c16.2,0,22.772,8.406,34.388,8.406,13.3,0,24.148-6.113,42.794-6.113,9.934,0,22.925,12.991,22.925,24.454,0,27.128-25.218,23.231-25.218,29.8,0,4.585,1.528,8.253,1.528,14.519,0,8.253-10.7,12.991-16.812,12.991-18.646,0-21.091-2.293-21.091-2.293A84.291,84.291,0,0,0,574.5,298.516c-.764-.764-12.838,7.718-32.554,8.406-16.2.535-27.587,3.668-27.587,11.233,0,5.349,1.987,21.168,1.834,25.6s-1.681,7.336-2.675,7.336-1.528-1.452-7.795-1.452c-6.648,0-7.183,8.177-8.329,8.177C490.671,357.816,466.6,352.39,466.6,333.209Z" transform="translate(-347.848 -55.891)" fill="#1e266d"/><path d="M343.912,230.8H305.78a20.481,20.481,0,0,0-20.48,20.48v38.132a20.481,20.481,0,0,0,20.48,20.48h38.132a20.481,20.481,0,0,0,20.48-20.48V251.28A20.481,20.481,0,0,0,343.912,230.8Z" transform="translate(76.459 -54.429)" fill="#fed385"/><ellipse cx="16.2" cy="16.2" rx="16.2" ry="16.2" transform="translate(355.034 166.513)" fill="#ff2e6a"/><path d="M293.986,0H550.671a62.617,62.617,0,0,1,62.586,62.586V718.857a62.617,62.617,0,0,1-62.586,62.586H293.986A62.617,62.617,0,0,1,231.4,718.857V62.586A62.617,62.617,0,0,1,293.986,0ZM252.109,388.2V715.036a43.212,43.212,0,0,0,43.252,43.252H549.372a43.212,43.212,0,0,0,43.252-43.252h0V66.559a43.212,43.212,0,0,0-43.252-43.252H295.361a43.212,43.212,0,0,0-43.252,43.252h0V388.2Z" transform="translate(-131.217)" fill="#dee0eb"/><path d="M784.532,127.1H691.838A30.363,30.363,0,0,0,661.5,157.438h0a30.363,30.363,0,0,0,30.338,30.338h92.694a30.363,30.363,0,0,0,30.338-30.338h0A30.314,30.314,0,0,0,784.532,127.1Z" transform="translate(-661.5 -29.974)" fill="#74d5de"/><ellipse cx="7.642" cy="7.642" rx="7.642" ry="7.642" transform="translate(100.336 120.816)" fill="#fed385"/><ellipse cx="7.642" cy="7.642" rx="7.642" ry="7.642" transform="translate(69.005 120.816)" fill="#fed385"/><ellipse cx="7.642" cy="7.642" rx="7.642" ry="7.642" transform="translate(37.75 120.816)" fill="#fed385"/><path d="M47.451,873.589C36.064,868.7,27.2,861.132,27.2,839.353c0-102.017,120.739-74.507,120.739-159.253" transform="translate(490.145 -160.386)" fill="none" stroke="#74d5de" stroke-linecap="round" stroke-miterlimit="10" stroke-width="9"/><path d="M31.456,678.656c-6.572,8.559,15.36,18.264,18.493,14.214S38.41,669.562,31.456,678.656Z" transform="translate(585.384 -159.477)" fill="#74d5de"/><path d="M170.413,482.209c-7.947,10.393,15.589,19.868,19.41,14.9S178.972,471.052,170.413,482.209Z" transform="translate(339.443 -112.96)" fill="#74d5de"/><path d="M151.106,538.263c-6.343,11.463,24.453,20.709,27.51,15.207S157.831,525.96,151.106,538.263Z" transform="translate(365.169 -126.069)" fill="#74d5de"/><path d="M158.017,581.29c-8.329,10.087,20.327,24.759,24.3,19.945S166.882,570.438,158.017,581.29Z" transform="translate(356.423 -136.465)" fill="#74d5de"/><path d="M170.817,629.2c-8.329,10.087,20.327,24.759,24.3,19.945S179.682,618.423,170.817,629.2Z" transform="translate(333.842 -147.769)" fill="#74d5de"/><path d="M186.158,673.942c-7.565,9.17,17.5,21.7,21.091,17.27S194.258,664.084,186.158,673.942Z" transform="translate(309.943 -158.355)" fill="#74d5de"/><path d="M201.158,722.842c-7.565,9.17,17.5,21.7,21.091,17.27S209.258,712.984,201.158,722.842Z" transform="translate(283.48 -169.887)" fill="#74d5de"/><path d="M22.961,669.288C20.21,658.9-.958,670.206.341,675.249S25.865,680.445,22.961,669.288Z" transform="translate(635.45 -156.834)" fill="#74d5de"/><path d="M23.192,716.23c1.376-10.622-22.543-8.024-23.154-2.9S21.74,727.693,23.192,716.23Z" transform="translate(635.601 -167.172)" fill="#74d5de"/><path d="M44.22,757.056c6.954-8.177-14.443-19.1-17.805-15.207S36.731,765.767,44.22,757.056Z" transform="translate(593.481 -174.756)" fill="#74d5de"/><path d="M83.366,782.078c4.2-9.858-19.486-13.832-21.473-9.094S78.933,792.624,83.366,782.078Z" transform="translate(527.82 -181.821)" fill="#74d5de"/><path d="M129.866,806.478c4.2-9.858-19.486-13.831-21.473-9.094S125.357,817.024,129.866,806.478Z" transform="translate(445.785 -187.575)" fill="#74d5de"/><path d="M167.08,843.158c.917-10.7-22.849-7.107-23.307-1.987S166.087,854.621,167.08,843.158Z" transform="translate(381.901 -197.203)" fill="#74d5de"/><path d="M51.881,709.054c-8.406,6.725,10.546,21.473,14.6,18.264S60.9,701.795,51.881,709.054Z" transform="translate(553.42 -166.874)" fill="#74d5de"/><path d="M80.382,734.214c-9.246,5.5,7.412,22.7,11.845,20.1S90.24,728.406,80.382,734.214Z" transform="translate(505.891 -172.929)" fill="#74d5de"/><path d="M123.6,758.715c-8.712,6.266,9.552,21.932,13.755,18.875S132.919,751.991,123.6,758.715Z" transform="translate(427.754 -178.632)" fill="#74d5de"/><path d="M186.862,834.076c0-4.356-37.062-45.01-37.062-95.522,0-82.378,46-123.643,46-182.484,0-11.157-.993-46.156-18.722-60.37" transform="translate(348.593 -116.9)" fill="none" stroke="#74d5de" stroke-linecap="round" stroke-miterlimit="10" stroke-width="9"/><path d="M126.705,1026.436h67.553a7.293,7.293,0,0,0,6.954-5.043l33.624-101.864a7.4,7.4,0,0,0-4.661-9.246,8,8,0,0,0-2.293-.382H92.776a7.338,7.338,0,0,0-7.336,7.336,8,8,0,0,0,.382,2.292l33.929,101.864A7.364,7.364,0,0,0,126.705,1026.436Z" transform="translate(358.392 -214.58)" fill="#c1aef8"/><path d="M208.854,778.331c-3.974,11.233,23.842,14.443,25.676,9.094S213.057,766.257,208.854,778.331Z" transform="translate(264.933 -182.506)" fill="#74d5de"/><path d="M198.945,800.812c-8.788-7.947-22.543,16.43-18.264,20.251S208.42,809.37,198.945,800.812Z" transform="translate(320.234 -188.48)" fill="#74d5de"/><path d="M196.3,760.56c-5.808-10.316-26.517,8.482-23.766,13.373S202.563,771.641,196.3,760.56Z" transform="translate(329.989 -178.643)" fill="#74d5de"/><path d="M187.6,713.36c-5.808-10.316-26.517,8.482-23.766,13.373S193.863,724.44,187.6,713.36Z" transform="translate(345.337 -167.512)" fill="#74d5de"/><path d="M174.689,675.508c-3.821-11.31-27.663,3.286-25.829,8.712S178.816,687.506,174.689,675.508Z" transform="translate(370.089 -158.316)" fill="#74d5de"/><path d="M150.519,624c-5.578-10.546-26.746,7.718-24.071,12.762S156.4,635.314,150.519,624Z" transform="translate(411.071 -146.397)" fill="#74d5de"/><path d="M138.68,566.56c-6.5-9.934-25.982,10.164-22.849,14.9S145.634,577.258,138.68,566.56Z" transform="translate(430.782 -132.968)" fill="#74d5de"/><path d="M143.78,516.96c-6.5-9.934-25.982,10.164-22.849,14.9S150.734,527.658,143.78,516.96Z" transform="translate(421.784 -121.271)" fill="#74d5de"/><path d="M208.854,829.341c-3.974,11.233,23.842,14.443,25.676,9.094S213.057,817.343,208.854,829.341Z" transform="translate(264.933 -193.779)" fill="#74d5de"/></svg>