<svg xmlns="http://www.w3.org/2000/svg" width="18" height="18" viewBox="0 0 18 18"><path d="M15.363,0H2.637A2.64,2.64,0,0,0,0,2.637V15.363A2.64,2.64,0,0,0,2.637,18H15.363A2.64,2.64,0,0,0,18,15.363V2.637A2.64,2.64,0,0,0,15.363,0ZM9.035,13.711a4.746,4.746,0,1,1,4.746-4.746A4.751,4.751,0,0,1,9.035,13.711Zm5.273-8.437a1.582,1.582,0,1,1,1.582-1.582A1.584,1.584,0,0,1,14.309,5.273Zm0,0" fill="#1e266d"/><path d="M392.527,90a.527.527,0,1,0,.527.527A.528.528,0,0,0,392.527,90Zm0,0" transform="translate(-378.219 -86.836)" fill="#1e266d"/><path d="M155.691,150a3.691,3.691,0,1,0,3.691,3.691A3.7,3.7,0,0,0,155.691,150Zm0,0" transform="translate(-146.656 -144.727)" fill="#1e266d"/></svg>