<svg xmlns="http://www.w3.org/2000/svg" width="24.382" height="24.385" viewBox="0 0 24.382 24.385"><path d="M23.727,10.606l0,0L13.778.657a2.244,2.244,0,0,0-3.175,0L.662,10.6l-.01.01a2.244,2.244,0,0,0,1.494,3.825q.034,0,.069,0h.4v7.32a2.63,2.63,0,0,0,2.627,2.627H9.13a.714.714,0,0,0,.714-.714V17.931a1.2,1.2,0,0,1,1.2-1.2h2.3a1.2,1.2,0,0,1,1.2,1.2V23.67a.714.714,0,0,0,.714.714h3.892a2.63,2.63,0,0,0,2.627-2.627v-7.32h.368a2.245,2.245,0,0,0,1.589-3.831Zm0,0" transform="translate(0 0.001)" fill="#fff"/></svg>