<svg xmlns="http://www.w3.org/2000/svg" xmlns:xlink="http://www.w3.org/1999/xlink" width="744" height="744" viewBox="0 0 744 744"><defs><linearGradient id="a" y1="0.5" x2="1" y2="0.5" gradientUnits="objectBoundingBox"><stop offset="0" stop-color="#f2f9ff"/><stop offset="1" stop-color="#f9fcff"/></linearGradient><linearGradient id="b" y1="0.454" xlink:href="#a"/><clipPath id="c"><circle cx="372" cy="372" r="372" transform="translate(255 2482.112)" fill="url(#a)"/></clipPath></defs><g transform="translate(-247 -2446)"><circle cx="372" cy="372" r="372" transform="translate(247 2446)" fill="url(#b)"/><g transform="translate(-8 -36.112)" clip-path="url(#c)"><g transform="translate(391.262 2481.954)"><g transform="translate(0)"><path d="M270.763,344.928c45.161,0,69.414,30.191,73.931,60.8,4.6,31.362-.669,57.288.669,95.173.92,25.508,12.127,42.569,19.319,65.316s-184.994,28.518-183.823,7.192,14.887-43.07,15.388-69.582c.5-27.013-3.345-43.238-2.843-87.228C193.822,381.977,225.6,344.928,270.763,344.928Z" transform="translate(-48.721 17.616)" fill-rule="evenodd"/><path d="M90,716.036c-1.756-21.326,7.778-97.515,37.216-154.384,109.976-60.884,247.968-31.864,302.58,0,18.483,18.734,31.864,143.429,27.766,152.377" transform="translate(-53.371 26.866)" fill="#ffd98e" fill-rule="evenodd"/><path d="M150.384,707.659c1.756-13.883,4.516-36.213,8.949-56.87" transform="translate(-50.277 33.236)" fill="none" stroke="#ff8364" stroke-linecap="round" stroke-linejoin="round" stroke-width="4.559"/><path d="M382.919,707.659c-1.756-13.883-4.516-36.213-8.949-56.87" transform="translate(-38.858 33.236)" fill="none" stroke="#ff8364" stroke-linecap="round" stroke-linejoin="round" stroke-width="4.559"/><path d="M199.955,439.571a12.21,12.21,0,1,1,12.21,12.21,12.171,12.171,0,0,1-12.21-12.21Z" transform="translate(-47.745 21.826)" fill="#d18c65" fill-rule="evenodd"/><path d="M306.736,439.571a12.21,12.21,0,1,1,12.21,12.21h0A12.225,12.225,0,0,1,306.736,439.571Z" transform="translate(-42.292 21.826)" fill="#d18c65" fill-rule="evenodd"/><path d="M313.671,238.811c-12.377-9.618-15.388,1.171-17.312,7.527s-1.756,17.646,7.861,17.479c8.447,7.611,16.392-2.258,18.817-7.276S331.4,240.651,313.671,238.811Z" transform="translate(-42.871 12.001)" fill="#ff8364" fill-rule="evenodd"/><path d="M320.891,232.1c-4.265,1.505-6.691,3.513-8.029,7.109" transform="translate(-41.979 11.853)" fill="none" stroke="#ffd98e" stroke-linecap="round" stroke-linejoin="round" stroke-width="2.252"/><path d="M236.159,293.665a14.3,14.3,0,1,1,14.3,14.3,14.295,14.295,0,0,1-14.3-14.3Z" transform="translate(-45.896 14.267)" fill="#6bd5e1" fill-rule="evenodd"/><path d="M141.711,299.426l39.725-10.036,16.057,63.393-39.725,10.036Z" transform="translate(-50.72 14.779)" fill="#dfdfdf" fill-rule="evenodd"/><path d="M149.668,305.959l27.348-6.941,2.091,8.28-27.348,6.941Z" transform="translate(-50.313 15.271)" fill="#ff8364" fill-rule="evenodd"/><path d="M153.885,322.43l27.348-6.941" transform="translate(-50.098 16.112)" fill="none" stroke="#6bd5e1" stroke-linecap="round" stroke-linejoin="round" stroke-width="2.475"/><path d="M156.033,331.023l27.348-6.941" transform="translate(-49.988 16.551)" fill="none" stroke="#6bd5e1" stroke-linecap="round" stroke-linejoin="round" stroke-width="2.475"/><path d="M158.341,339.935l27.348-6.941" transform="translate(-49.87 17.006)" fill="none" stroke="#6bd5e1" stroke-linecap="round" stroke-linejoin="round" stroke-width="2.475"/><path d="M160.489,348.4l10.7-2.76" transform="translate(-49.761 17.652)" fill="none" stroke="#6bd5e1" stroke-linecap="round" stroke-linejoin="round" stroke-width="2.475"/><path d="M182.45,342.753l4.265-1.087" transform="translate(-48.639 17.449)" fill="none" stroke="#6bd5e1" stroke-linecap="round" stroke-linejoin="round" stroke-width="2.475"/><path d="M116.727,164.458l102.7-48.925,32.115,67.407-102.7,48.925Z" transform="translate(-51.996 5.9)" fill="#dfdfdf" fill-rule="evenodd"/><path d="M150.464,216.235l10.2-29.94,19.068,3.6,7.443-36.882,18.4,3.094,5.352-26.009" transform="translate(-50.273 6.644)" fill="none" stroke="#ff8364" stroke-linecap="round" stroke-linejoin="round" stroke-width="2.475"/><path d="M156.854,185.761a5.275,5.275,0,1,1,7.025,2.509,5.221,5.221,0,0,1-7.025-2.509Z" transform="translate(-49.973 9.102)" fill="#ffd98e" fill-rule="evenodd"/><path d="M181.123,155.206a5.275,5.275,0,1,1,7.025,2.509,5.221,5.221,0,0,1-7.025-2.509Z" transform="translate(-48.733 7.541)" fill="#ffd98e" fill-rule="evenodd"/><path d="M366.253,209.828A18.148,18.148,0,1,1,384.4,227.976h0A18.132,18.132,0,0,1,366.253,209.828Z" transform="translate(-39.252 9.789)" fill="#ffd98e" fill-rule="evenodd"/><path d="M413.895,205.923a20.811,20.811,0,0,1-20.072,26.511,22.708,22.708,0,0,1-4.1-.418" transform="translate(-38.053 10.517)" fill="none" stroke="#ff8364" stroke-linecap="round" stroke-linejoin="round" stroke-width="2.475"/><path d="M373.433,222.075l-6.941,12.461,28.769,4.6-3.178-14.552" transform="translate(-39.24 11.341)" fill="#ffd98e" fill-rule="evenodd"/><path d="M379.461,209.154a4.265,4.265,0,1,1,4.265,4.265h0A4.283,4.283,0,0,1,379.461,209.154Z" transform="translate(-38.578 10.464)" fill="#1b3c87" fill-rule="evenodd"/><path d="M407.549,205.1a4.265,4.265,0,1,1,4.265,4.265h0A4.283,4.283,0,0,1,407.549,205.1Z" transform="translate(-37.143 10.257)" fill="#ffd98e" fill-rule="evenodd"/><path d="M81.568,79.17l26.846,7.276L81.987,184.3,55.141,177.1Z" transform="translate(-55.141 4.043)" fill="#ff8364" fill-rule="evenodd"/><path d="M63.257,142.189l14.8,4.014" transform="translate(-54.726 7.262)" fill="none" stroke="#ffd98e" stroke-linecap="round" stroke-linejoin="round" stroke-width="3.366"/><path d="M58.8,158.739l14.8,4.014" transform="translate(-54.954 8.107)" fill="none" stroke="#ffd98e" stroke-linecap="round" stroke-linejoin="round" stroke-width="3.366"/><path d="M67.713,125.718l14.8,4.014" transform="translate(-54.499 6.42)" fill="none" stroke="#ffd98e" stroke-linecap="round" stroke-linejoin="round" stroke-width="3.366"/><path d="M72.168,109.168l14.8,4.014" transform="translate(-54.271 5.575)" fill="none" stroke="#ffd98e" stroke-linecap="round" stroke-linejoin="round" stroke-width="3.366"/><path d="M76.624,92.7l14.8,4.014" transform="translate(-54.044 4.734)" fill="none" stroke="#ffd98e" stroke-linecap="round" stroke-linejoin="round" stroke-width="3.366"/><path d="M344.066,59.835l101.362,24.5L428.7,153.419l-101.278-24.5Z" transform="translate(-41.235 3.056)" fill="#dfdfdf" fill-rule="evenodd"/><path d="M400.96,131.534a10.933,10.933,0,1,1,8.029,13.214h0A10.991,10.991,0,0,1,400.96,131.534Z" transform="translate(-37.496 6.292)" fill="#ff8364" fill-rule="evenodd"/><path d="M404.4,139.642l-7.276,18.984,10.2-2.342,6.523,6.105,1.338-20.657" transform="translate(-37.675 7.132)" fill="#ff8364" fill-rule="evenodd"/><path d="M348.986,76.863l80.036,19.319" transform="translate(-40.134 3.925)" fill="none" stroke="#6bd5e1" stroke-linecap="round" stroke-linejoin="round" stroke-width="2.475"/><path d="M344.531,94.925,392.87,106.55" transform="translate(-40.362 4.848)" fill="none" stroke="#6bd5e1" stroke-linecap="round" stroke-linejoin="round" stroke-width="2.475"/><path d="M190.776,69.741,179.9,57.949l15.639-3.513,15.639-3.513-4.767,15.3-4.767,15.3Z" transform="translate(-48.769 2.601)" fill="#6bd5e1" fill-rule="evenodd"/><path d="M396.5,305.127l-14.887,5.938,2.258-15.89,2.258-15.89,12.628,9.952,12.628,9.952Z" transform="translate(-38.468 14.263)" fill="#ffd98e" fill-rule="evenodd"/><path d="M279.444,122.117a7.778,7.778,0,1,1,7.778,7.778h0A7.817,7.817,0,0,1,279.444,122.117Z" transform="translate(-43.686 5.839)" fill="none" stroke="#ff8364" stroke-linecap="round" stroke-linejoin="round" stroke-width="2.475"/><path d="M72.725,246.085a7.778,7.778,0,1,1,7.778,7.778h0A7.817,7.817,0,0,1,72.725,246.085Z" transform="translate(-54.243 12.17)" fill="#ffd98e" fill-rule="evenodd"/><path d="M240.137,482.82h52.019s.251,53.775,0,74.85c0,8.7-52.019,7.694-52.019,0Z" transform="translate(-45.693 24.658)" fill="#d18c65" fill-rule="evenodd"/><path d="M214.834,437.4c0-39.892,24.253-72.258,54.193-72.258S323.221,397.5,323.221,437.4s-24.253,72.258-54.193,72.258S214.834,477.289,214.834,437.4Z" transform="translate(-46.985 18.648)" fill="#e49d75" fill-rule="evenodd"/><path d="M298.869,360.524c-13.8,32.031-70.836,63.226-94.839,70.585C200.268,411.957,224.855,330.583,298.869,360.524Z" transform="translate(-47.556 18.078)" fill-rule="evenodd"/><path d="M265.374,359.252c-10.454,4.014,23.5,58.208,64.062,71.589C346.078,407.256,307.775,358.164,265.374,359.252Z" transform="translate(-44.502 18.346)" fill-rule="evenodd"/><path d="M339.04,14.3a14.3,14.3,0,1,1,14.3,14.3h0a14.189,14.189,0,0,1-14.3-14.3Z" transform="translate(-40.642)" fill="#ffd98e" fill-rule="evenodd"/><path d="M103.916,372.711A13.381,13.381,0,1,1,117.3,386.092,13.42,13.42,0,0,1,103.916,372.711Z" transform="translate(-52.65 18.351)" fill="none" stroke="#6bd5e1" stroke-linecap="round" stroke-linejoin="round" stroke-width="2.475"/><path d="M385.986,367.029a7.778,7.778,0,1,1,7.778,7.778h0a7.763,7.763,0,0,1-7.778-7.778Z" transform="translate(-38.244 18.347)" fill="none" stroke="#ff8364" stroke-linecap="round" stroke-linejoin="round" stroke-width="2.475"/><path d="M270.763,345.485c45.161,0,69.414,30.191,73.931,60.8,4.6,31.362-.669,57.288.669,95.173.92,25.508,12.127,42.569,19.319,65.316s-184.994,28.518-183.823,7.192,14.887-43.07,15.388-69.582c.5-27.013-3.345-43.238-2.843-87.228C193.822,382.534,225.6,345.485,270.763,345.485Z" transform="translate(-48.721 17.644)" fill-rule="evenodd"/><path d="M90,716.594c-1.756-21.326,7.778-97.515,37.216-154.384,109.976-60.884,247.968-31.947,302.58,0,18.483,18.734,31.864,143.429,27.766,152.377" transform="translate(-53.371 26.893)" fill="#ffd98e" fill-rule="evenodd"/><path d="M150.384,708.215c1.756-13.883,4.516-36.213,8.949-56.87" transform="translate(-50.277 33.265)" fill="none" stroke="#ff8364" stroke-linecap="round" stroke-linejoin="round" stroke-width="4.559"/><path d="M382.919,708.215c-1.756-13.883-4.516-36.213-8.949-56.87" transform="translate(-38.858 33.265)" fill="none" stroke="#ff8364" stroke-linecap="round" stroke-linejoin="round" stroke-width="4.559"/><path d="M199.955,440.208a12.21,12.21,0,1,1,12.21,12.21,12.171,12.171,0,0,1-12.21-12.21Z" transform="translate(-47.745 21.858)" fill="#d18c65" fill-rule="evenodd"/><path d="M306.736,440.208a12.21,12.21,0,1,1,12.21,12.21h0A12.279,12.279,0,0,1,306.736,440.208Z" transform="translate(-42.292 21.858)" fill="#d18c65" fill-rule="evenodd"/><path d="M313.671,239.368c-12.377-9.618-15.388,1.171-17.312,7.527s-1.756,17.646,7.861,17.479c8.447,7.611,16.392-2.258,18.817-7.192S331.4,241.292,313.671,239.368Z" transform="translate(-42.871 12.029)" fill="#ff2e6a" fill-rule="evenodd"/><path d="M320.891,232.658c-4.265,1.505-6.691,3.513-8.029,7.109" transform="translate(-41.979 11.882)" fill="none" stroke="#ffd98e" stroke-linecap="round" stroke-linejoin="round" stroke-width="2.252"/><path d="M236.159,294.222a14.3,14.3,0,1,1,14.3,14.3,14.295,14.295,0,0,1-14.3-14.3Z" transform="translate(-45.896 14.296)" fill="#6bd5e1" fill-rule="evenodd"/><path d="M141.711,300.062l39.725-10.036,16.057,63.393-39.725,10.036Z" transform="translate(-50.72 14.812)" fill="#dfdfdf" fill-rule="evenodd"/><path d="M149.668,306.516l27.348-6.941,2.091,8.28L151.759,314.8Z" transform="translate(-50.313 15.299)" fill="#ff2e6a" fill-rule="evenodd"/><path d="M153.885,322.987l27.348-6.941" transform="translate(-50.098 16.141)" fill="none" stroke="#6bd5e1" stroke-linecap="round" stroke-linejoin="round" stroke-width="2.475"/><path d="M156.033,331.58l27.348-6.941" transform="translate(-49.988 16.579)" fill="none" stroke="#6bd5e1" stroke-linecap="round" stroke-linejoin="round" stroke-width="2.475"/><path d="M158.341,340.571l27.348-6.941" transform="translate(-49.87 17.039)" fill="none" stroke="#6bd5e1" stroke-linecap="round" stroke-linejoin="round" stroke-width="2.475"/><path d="M160.489,348.961l10.7-2.76" transform="translate(-49.761 17.681)" fill="none" stroke="#6bd5e1" stroke-linecap="round" stroke-linejoin="round" stroke-width="2.475"/><path d="M182.45,343.31l4.265-1.087" transform="translate(-48.639 17.478)" fill="none" stroke="#6bd5e1" stroke-linecap="round" stroke-linejoin="round" stroke-width="2.475"/><path d="M116.727,165.015l102.7-48.925L251.541,183.5l-102.7,48.925Z" transform="translate(-51.996 5.929)" fill="#dfdfdf" fill-rule="evenodd"/><path d="M150.464,216.8l10.2-29.94,19.068,3.513,7.443-36.882,18.4,3.094,5.352-26.009" transform="translate(-50.273 6.668)" fill="none" stroke="#ff8364" stroke-linecap="round" stroke-linejoin="round" stroke-width="2.475"/><path d="M156.854,186.4a5.275,5.275,0,1,1,7.025,2.509A5.292,5.292,0,0,1,156.854,186.4Z" transform="translate(-49.973 9.134)" fill="#ffd98e" fill-rule="evenodd"/><path d="M181.123,155.843a5.275,5.275,0,1,1,7.025,2.509,5.344,5.344,0,0,1-7.025-2.509Z" transform="translate(-48.733 7.574)" fill="#ffd98e" fill-rule="evenodd"/><path d="M366.253,210.385A18.148,18.148,0,1,1,384.4,228.533h-.084A18.168,18.168,0,0,1,366.253,210.385Z" transform="translate(-39.252 9.818)" fill="#ffd98e" fill-rule="evenodd"/><path d="M413.895,206.559a21.671,21.671,0,0,1,.753,5.687,20.9,20.9,0,0,1-20.824,20.908,22.707,22.707,0,0,1-4.1-.418" transform="translate(-38.053 10.549)" fill="none" stroke="#ff8364" stroke-linecap="round" stroke-linejoin="round" stroke-width="2.475"/><path d="M373.433,222.632l-6.941,12.461,28.769,4.6-3.178-14.552" transform="translate(-39.24 11.37)" fill="#ffd98e" fill-rule="evenodd"/><path d="M379.461,209.71a4.265,4.265,0,1,1,4.265,4.265h0A4.178,4.178,0,0,1,379.461,209.71Z" transform="translate(-38.578 10.492)" fill="#1b3c87" fill-rule="evenodd"/><path d="M407.549,205.653a4.265,4.265,0,1,1,4.265,4.265h0A4.283,4.283,0,0,1,407.549,205.653Z" transform="translate(-37.143 10.285)" fill="#ffd98e" fill-rule="evenodd"/><path d="M81.568,79.727,108.414,87,81.987,184.853l-26.846-7.276Z" transform="translate(-55.141 4.072)" fill="#f8aec3" fill-rule="evenodd"/><path d="M63.257,142.825l14.8,4.014" transform="translate(-54.726 7.294)" fill="none" stroke="#ffd98e" stroke-linecap="round" stroke-linejoin="round" stroke-width="3.366"/><path d="M58.8,159.3l14.8,4.014" transform="translate(-54.954 8.135)" fill="none" stroke="#ffd98e" stroke-linecap="round" stroke-linejoin="round" stroke-width="3.366"/><path d="M67.713,126.275l14.8,4.014" transform="translate(-54.499 6.449)" fill="none" stroke="#ffd98e" stroke-linecap="round" stroke-linejoin="round" stroke-width="3.366"/><path d="M72.168,109.8l14.8,4.014" transform="translate(-54.271 5.608)" fill="none" stroke="#ffd98e" stroke-linecap="round" stroke-linejoin="round" stroke-width="3.366"/><path d="M76.624,93.254l14.8,4.014" transform="translate(-54.044 4.763)" fill="none" stroke="#ffd98e" stroke-linecap="round" stroke-linejoin="round" stroke-width="3.366"/><path d="M344.066,60.472,445.428,84.892,428.7,153.972l-101.278-24.5Z" transform="translate(-41.235 3.088)" fill="#dfdfdf" fill-rule="evenodd"/><path d="M400.96,132.091a10.933,10.933,0,1,1,8.029,13.214h0A10.951,10.951,0,0,1,400.96,132.091Z" transform="translate(-37.496 6.32)" fill="#ff2e6a" fill-rule="evenodd"/><path d="M404.405,140.279l-7.36,18.984,10.2-2.342,6.523,6.105,1.338-20.741" transform="translate(-37.68 7.164)" fill="#ff8364" fill-rule="evenodd"/><path d="M348.986,77.5l80.036,19.319" transform="translate(-40.134 3.958)" fill="none" stroke="#6bd5e1" stroke-linecap="round" stroke-linejoin="round" stroke-width="2.475"/><path d="M344.531,95.561l48.339,11.625" transform="translate(-40.362 4.88)" fill="none" stroke="#6bd5e1" stroke-linecap="round" stroke-linejoin="round" stroke-width="2.475"/><path d="M190.776,70.3,179.9,58.506l15.639-3.513,15.639-3.513-4.683,15.3-4.767,15.3Z" transform="translate(-48.769 2.629)" fill="#6bd5e1" fill-rule="evenodd"/><path d="M396.5,305.684l-14.887,5.938,2.258-15.89,2.258-15.89,12.628,9.952,12.628,9.952Z" transform="translate(-38.468 14.292)" fill="#ffd98e" fill-rule="evenodd"/><path d="M279.444,122.754a7.778,7.778,0,1,1,7.778,7.778h0A7.817,7.817,0,0,1,279.444,122.754Z" transform="translate(-43.686 5.872)" fill="none" stroke="#ff8364" stroke-linecap="round" stroke-linejoin="round" stroke-width="2.475"/><path d="M72.725,246.642a7.778,7.778,0,1,1,7.778,7.778h0A7.763,7.763,0,0,1,72.725,246.642Z" transform="translate(-54.243 12.199)" fill="#ffd98e" fill-rule="evenodd"/><path d="M240.137,483.377h52.019s.251,53.775,0,74.851c0,8.7-52.019,7.694-52.019,0Z" transform="translate(-45.693 24.686)" fill="#d18c65" fill-rule="evenodd"/><path d="M214.834,438.033c0-39.892,24.253-72.258,54.193-72.258s54.193,32.365,54.193,72.258-24.253,72.258-54.193,72.258S214.834,477.926,214.834,438.033Z" transform="translate(-46.985 18.68)" fill="#e49d75" fill-rule="evenodd"/><path d="M298.869,361.16c-13.8,32.031-70.836,63.226-94.839,70.585C200.268,412.594,224.855,331.22,298.869,361.16Z" transform="translate(-47.556 18.11)" fill-rule="evenodd"/><path d="M265.374,359.888c-10.454,3.931,23.5,58.208,64.062,71.589C346.078,407.809,307.775,358.717,265.374,359.888Z" transform="translate(-44.502 18.379)" fill-rule="evenodd"/><path d="M339.04,14.942a14.343,14.343,0,1,1,14.3,14.3h0A14.3,14.3,0,0,1,339.04,14.942Z" transform="translate(-40.642 0.028)" fill="#ffd98e" fill-rule="evenodd"/><path d="M103.916,373.268A13.381,13.381,0,1,1,117.3,386.649,13.42,13.42,0,0,1,103.916,373.268Z" transform="translate(-52.65 18.38)" fill="none" stroke="#6bd5e1" stroke-linecap="round" stroke-linejoin="round" stroke-width="2.475"/><path d="M385.986,367.665a7.778,7.778,0,1,1,7.778,7.778h0a7.817,7.817,0,0,1-7.778-7.778Z" transform="translate(-38.244 18.38)" fill="none" stroke="#ff8364" stroke-linecap="round" stroke-linejoin="round" stroke-width="2.475"/></g></g></g></g></svg>